HIERARCHY
ROOT Hips
{
	OFFSET 0.000000 0.000000 0.000000
	CHANNELS 6 Xposition Yposition Zposition Zrotation Yrotation Xrotation 
	JOINT LHipJoint
	{
		OFFSET 0.000000 0.000000 0.000000
		CHANNELS 3 Zrotation Yrotation Xrotation
		JOINT LeftUpLeg
		{
			OFFSET 1.363060 -1.794630 0.839290
			CHANNELS 3 Zrotation Yrotation Xrotation
			JOINT LeftLeg
			{
				OFFSET 2.448110 -6.726130 0.000000
				CHANNELS 3 Zrotation Yrotation Xrotation
				JOINT LeftFoot
				{
					OFFSET 2.562200 -7.039590 0.000000
					CHANNELS 3 Zrotation Yrotation Xrotation
					JOINT LeftToeBase
					{
						OFFSET 0.157640 -0.433110 2.322550
						CHANNELS 3 Zrotation Yrotation Xrotation
						End Site
						{
							OFFSET 0.000000 0.000000 0.000000
						}
					}
				}
			}
		}
	}
	JOINT RHipJoint
	{
		OFFSET 0.000000 0.000000 0.000000
		CHANNELS 3 Zrotation Yrotation Xrotation
		JOINT RightUpLeg
		{
			OFFSET -1.305520 -1.794630 0.839290
			CHANNELS 3 Zrotation Yrotation Xrotation
			JOINT RightLeg
			{
				OFFSET -2.542530 -6.985550 0.000000
				CHANNELS 3 Zrotation Yrotation Xrotation
				JOINT RightFoot
				{
					OFFSET -2.568260 -7.056230 0.000000
					CHANNELS 3 Zrotation Yrotation Xrotation
					JOINT RightToeBase
					{
						OFFSET -0.164730 -0.452590 2.363150
						CHANNELS 3 Zrotation Yrotation Xrotation
						End Site
						{
							OFFSET 0.000000 0.000000 0.000000
						}
					}
				}
			}
		}
	}
	JOINT LowerBack
	{
		OFFSET 0.000000 0.000000 0.000000
		CHANNELS 3 Zrotation Yrotation Xrotation
		JOINT Spine
		{
			OFFSET 0.028270 2.035590 -0.193380
			CHANNELS 3 Zrotation Yrotation Xrotation
			JOINT Spine1
			{
				OFFSET 0.056720 2.048850 -0.042750
				CHANNELS 3 Zrotation Yrotation Xrotation
				JOINT Neck
				{
					OFFSET 0.000000 0.000000 0.000000
					CHANNELS 3 Zrotation Yrotation Xrotation
					JOINT Neck1
					{
						OFFSET -0.054170 1.746240 0.172020
						CHANNELS 3 Zrotation Yrotation Xrotation
						JOINT Head
						{
							OFFSET 0.104070 1.761360 -0.123970
							CHANNELS 3 Zrotation Yrotation Xrotation
							End Site
							{
								OFFSET 0.000000 0.000000 0.000000
							}
						}
					}
				}
				JOINT LeftShoulder
				{
					OFFSET 0.000000 0.000000 0.000000
					CHANNELS 3 Zrotation Yrotation Xrotation
					JOINT LeftArm
					{
						OFFSET 3.362410 1.200890 -0.311210
						CHANNELS 3 Zrotation Yrotation Xrotation
						JOINT LeftForeArm
						{
							OFFSET 4.983000 -0.000000 -0.000000
							CHANNELS 3 Zrotation Yrotation Xrotation
							JOINT LeftHand
							{
								OFFSET 3.483560 -0.000000 -0.000000
								CHANNELS 3 Zrotation Yrotation Xrotation
								JOINT LeftFingerBase
								{
									OFFSET 0.000000 0.000000 0.000000
									CHANNELS 3 Zrotation Yrotation Xrotation
									JOINT LeftHandIndex1
									{
										OFFSET 0.715260 -0.000000 -0.000000
										CHANNELS 3 Zrotation Yrotation Xrotation
										End Site
										{
											OFFSET 0.000000 0.000000 0.000000
										}
									}
								}
								JOINT LThumb
								{
									OFFSET 0.000000 0.000000 0.000000
									CHANNELS 3 Zrotation Yrotation Xrotation
									End Site
									{
										OFFSET 0.000000 0.000000 0.000000
									}
								}
							}
						}
					}
				}
				JOINT RightShoulder
				{
					OFFSET 0.000000 0.000000 0.000000
					CHANNELS 3 Zrotation Yrotation Xrotation
					JOINT RightArm
					{
						OFFSET -3.136600 1.374050 -0.404650
						CHANNELS 3 Zrotation Yrotation Xrotation
						JOINT RightForeArm
						{
							OFFSET -5.241900 -0.000000 -0.000000
							CHANNELS 3 Zrotation Yrotation Xrotation
							JOINT RightHand
							{
								OFFSET -3.444170 -0.000000 -0.000000
								CHANNELS 3 Zrotation Yrotation Xrotation
								JOINT RightFingerBase
								{
									OFFSET 0.000000 0.000000 0.000000
									CHANNELS 3 Zrotation Yrotation Xrotation
									JOINT RightHandIndex1
									{
										OFFSET -0.622530 -0.000000 -0.000000
										CHANNELS 3 Zrotation Yrotation Xrotation
										End Site
										{
											OFFSET 0.000000 0.000000 0.000000
										}
									}
								}
								JOINT RThumb
								{
									OFFSET 0.000000 0.000000 0.000000
									CHANNELS 3 Zrotation Yrotation Xrotation
									End Site
									{
										OFFSET 0.000000 0.000000 0.000000
									}
								}
							}
						}
					}
				}
			}
		}
	}
}
MOTION
Frames: 8
Frame Time: 0.008333
10.519870 22.943420 19.352775 5.059659 38.030865 27.971413 10.981135 0.595076 -2.378860 -17.566777 -23.780137 -44.845909 1.275862 15.564796 36.196227 2.686441 11.350265 4.374651 4.931200 -13.305900 -40.524500 -15.169648 -2.232906 -0.379834 22.497743 28.861747 -29.330780 0.462904 -10.027283 21.523187 -0.777702 -8.475340 1.450122 -3.836900 11.940200 -35.520700 -1.923965 -0.994294 -23.281997 1.657132 -1.765266 -6.831651 1.603873 -1.114640 7.511357 -12.384259 0.927329 -0.270051 12.393714 -1.762043 16.645056 3.132900 -0.145200 2.709400 19.089422 -2.396325 0.355321 -91.279196 -13.499991 59.315111 34.675855 -40.215193 -17.109277 -2.183977 0.531589 -1.522792 31.683402 -20.298122 -13.228300 -7.125000 0.000000 0.000000 3.336900 5.748900 -2.991100 -12.710400 0.545329 -0.240827 91.444955 -17.456598 35.995164 -31.419690 42.876583 -14.682606 0.818312 2.901032 -4.572078 -16.953861 -39.842225 12.385300 7.125000 0.000000 0.000000 30.575400 -71.876500 -20.093200 
10.512099 22.842506 19.402575 4.902164 41.039070 27.718491 10.947111 0.598844 -2.393077 -17.455612 -23.507647 -44.684103 1.501880 15.889591 37.387619 2.794081 11.877939 5.101537 4.748300 -13.094600 -39.723500 -15.191456 -2.243946 -0.384658 22.919401 28.942479 -28.973507 0.429385 -10.061258 21.675994 -0.720372 -8.011989 0.918760 -4.016400 12.182200 -36.379600 -2.112264 -1.175048 -23.156384 1.693155 -1.936140 -6.855136 1.800468 -1.182916 7.426467 -12.337940 0.942325 -0.322351 12.365405 -1.717125 16.589410 3.110100 -0.121600 2.704500 19.108600 -2.347630 0.411473 -89.659103 -13.171013 58.020802 34.638248 -40.228324 -17.023376 -2.172267 0.539950 -1.244997 31.813771 -19.979831 -13.100000 -7.125000 0.000000 0.000000 3.463800 6.077200 -3.083400 -12.671380 0.518962 -0.275064 91.002945 -17.435782 36.106626 -31.012424 42.564487 -14.395491 0.794398 2.917360 -4.380162 -16.390836 -39.983278 11.999900 7.125000 0.000000 0.000000 31.603500 -71.807600 -20.761400 
10.527532 22.712260 19.454892 5.433493 43.547401 27.828599 10.902582 0.621806 -2.390990 -18.182833 -23.358465 -44.101216 1.726842 16.160526 38.480447 2.860110 12.355257 5.433352 4.575900 -12.889600 -38.956600 -15.156954 -2.266327 -0.436500 22.783488 28.599969 -28.523183 0.345133 -10.065651 21.836110 -0.648920 -6.874344 0.648025 -4.058700 12.238200 -36.579800 -2.673761 -1.298578 -23.153608 1.574647 -1.860472 -6.832452 1.797946 -1.157032 7.484968 -12.305172 0.999058 -0.298796 12.331531 -1.640669 16.568784 3.096800 -0.083300 2.679800 19.101797 -2.306328 0.483253 -87.849405 -12.828760 56.876218 34.526339 -40.197084 -16.887153 -2.161558 0.530430 -1.122367 31.900122 -19.494699 -12.842900 -7.125000 0.000000 0.000000 3.591500 6.618800 -3.160000 -12.678300 0.460209 -0.295835 90.808841 -17.450961 36.015395 -30.604790 42.269665 -14.112527 0.787566 2.920857 -4.078887 -15.987531 -39.991938 11.702900 7.125000 0.000000 0.000000 32.137100 -71.680100 -21.046300 
10.541213 22.578729 19.507538 5.763279 46.134190 27.965196 10.859532 0.639448 -2.387625 -18.580495 -23.150912 -43.703837 1.960773 16.435115 39.597692 2.951954 12.752607 6.138483 4.555500 -12.865100 -38.865500 -15.149296 -2.308011 -0.466490 22.906112 28.175590 -28.278214 0.268479 -10.053862 21.913129 -0.587449 -5.550471 0.730572 -4.196800 12.417800 -37.226600 -3.107589 -1.432716 -23.223443 1.516884 -1.862018 -6.860935 1.891342 -1.151271 7.430777 -12.307794 1.021723 -0.257811 12.319393 -1.614112 16.539478 3.094600 -0.071400 2.659500 19.102238 -2.260642 0.533525 -86.141623 -12.258358 55.763088 34.467493 -40.194654 -16.793722 -2.153095 0.542323 -1.350420 31.867453 -19.483574 -12.831800 -7.125000 0.000000 0.000000 3.561600 6.611300 -3.134100 -12.665065 0.410039 -0.324040 90.547901 -17.543943 35.845681 -30.151180 41.925068 -13.797693 0.752176 2.930958 -3.730948 -15.116897 -40.116961 11.080700 7.125000 0.000000 0.000000 33.490800 -71.485800 -21.852900 
10.555770 22.435130 19.568502 6.011330 48.854898 28.073782 10.813712 0.656499 -2.387779 -18.934746 -22.766009 -43.270774 2.196182 16.614585 40.445182 2.955174 12.044250 7.255743 5.239900 -13.649000 -41.849100 -15.159660 -2.359021 -0.499592 23.260509 27.712065 -27.925968 0.224774 -9.967197 21.803734 -0.532503 -4.524710 0.809671 -4.428200 12.709400 -38.290200 -3.495169 -1.605467 -23.351515 1.474887 -1.923968 -6.864854 1.970724 -1.179675 7.501616 -12.348577 1.025688 -0.255353 12.331596 -1.612161 16.544659 3.112400 -0.070800 2.654400 19.107266 -2.214580 0.586345 -84.438318 -11.788199 54.648874 34.426474 -40.209998 -16.719296 -2.141960 0.551763 -1.844156 31.680021 -19.602697 -12.828300 -7.125000 0.000000 0.000000 3.409000 6.483000 -3.007700 -12.657578 0.356756 -0.347898 90.394349 -17.499753 35.462533 -29.728870 41.604138 -13.508378 0.675135 2.958517 -3.374474 -13.670694 -40.640216 10.099600 7.125000 0.000000 0.000000 36.367900 -71.400600 -23.808000 
10.577004 22.276864 19.631984 6.325458 51.527560 28.270062 10.751463 0.665844 -2.387383 -19.257524 -22.427763 -42.757213 2.399012 16.734472 41.054240 2.878799 11.197692 7.805718 5.885500 -14.316500 -44.520500 -15.171438 -2.419039 -0.545405 23.661015 27.110683 -27.562968 0.178647 -9.861366 21.662072 -0.471396 -3.430765 0.988377 -4.591700 12.908700 -39.027600 -3.963783 -1.844927 -23.612172 1.452072 -2.046761 -6.838589 2.112014 -1.248144 7.762722 -12.415833 1.000078 -0.412996 12.328288 -1.613184 16.580044 3.129800 -0.068800 2.687400 19.103774 -2.151232 0.639698 -82.785259 -11.347645 53.511042 34.228804 -40.116779 -16.522763 -2.133235 0.559832 -2.452550 31.490792 -19.732704 -12.831500 -7.125000 0.000000 0.000000 3.253900 6.339900 -2.879500 -12.637832 0.306143 -0.373032 90.128027 -17.223044 35.210845 -29.252135 41.234481 -13.183313 0.607671 2.988076 -3.030030 -12.386049 -41.107119 9.215900 7.125000 0.000000 0.000000 38.917800 -71.314400 -25.553900 
10.602834 22.106011 19.696998 6.684362 54.019265 28.496738 10.689476 0.669524 -2.383488 -19.486951 -22.191789 -42.109564 2.530065 16.807185 41.522297 2.875565 11.150195 8.041960 6.070300 -14.496100 -45.263200 -15.193814 -2.473932 -0.576313 24.045959 26.681853 -27.170057 0.137896 -9.753491 21.510400 -0.416709 -2.457050 1.288405 -4.650500 12.979000 -39.289900 -4.454204 -2.045600 -23.797691 1.408305 -2.107275 -6.844706 2.231703 -1.278881 7.855669 -12.470772 0.993312 -0.454582 12.323090 -1.611278 16.608340 3.143000 -0.067000 2.700000 19.098874 -2.095818 0.678725 -81.109047 -10.629789 52.707196 34.036059 -40.016535 -16.336793 -2.129756 0.558582 -2.929288 31.458337 -19.655336 -12.779700 -7.125000 0.000000 0.000000 3.236800 6.411900 -2.859800 -12.625000 0.255900 -0.394938 89.918997 -17.148218 35.117049 -28.858624 40.925962 -12.917290 0.601144 3.003271 -2.913022 -12.191330 -41.189996 9.085100 7.125000 0.000000 0.000000 39.351900 -71.317100 -25.867500 
10.634028 21.922134 19.765623 6.881867 56.363967 28.638503 10.640772 0.671435 -2.386765 -19.539401 -21.858008 -41.349401 2.560237 16.773973 41.694364 2.961746 11.593422 8.504671 5.778200 -14.209900 -44.085100 -15.239848 -2.519664 -0.577709 24.497786 26.569482 -26.843552 0.109616 -9.683622 21.415469 -0.390111 -1.819268 1.778032 -4.654700 12.984100 -39.308800 -4.816947 -2.135866 -24.015781 1.338665 -2.053542 -6.873477 2.268996 -1.246682 7.841474 -12.482656 0.997292 -0.389059 12.325738 -1.620040 16.619367 3.149500 -0.071200 2.687500 19.114446 -2.047027 0.703463 -79.351788 -9.654492 52.313718 34.160401 -40.145002 -16.415619 -2.125897 0.519759 -3.497421 31.426012 -19.217937 -12.496800 -7.125000 0.000000 0.000000 3.282100 6.930300 -2.866900 -12.632976 0.196930 -0.410129 89.917531 -17.339174 34.881618 -28.592898 40.725902 -12.742566 0.635891 2.998506 -2.730494 -12.557400 -40.985516 9.329200 7.125000 0.000000 0.000000 38.489300 -71.297800 -25.234100 
